<svg width="166" height="57" viewBox="0 0 166 57" fill="none" xmlns="http://www.w3.org/2000/svg">
<g id="Group">
<rect id="&#226;&#151;&#188;&#239;&#184;&#143; Background" x="0.333984" y="0.666016" width="165.333" height="56" rx="6" fill="#1C1C1C"/>
<g id="Subtract">
<path d="M33.5731 12.252C33.7736 14.0613 33.0514 15.8443 31.9958 17.1549C30.8943 18.4451 29.1321 19.4319 27.4158 19.3048C27.1912 17.5638 28.0608 15.7124 29.0343 14.5829C30.1346 13.3011 32.0453 12.3191 33.5731 12.252Z" fill="white"/>
<path d="M39.1916 22.6896C39 22.8031 35.8259 24.6839 35.8607 28.5195C35.9017 33.1515 39.943 34.6827 39.9913 34.6983C39.9672 34.8062 39.3584 36.9105 37.8427 39.0424C36.5769 40.9226 35.2507 42.7607 33.1444 42.7919C32.1426 42.8154 31.4663 42.5296 30.7615 42.2317C30.0267 41.9212 29.261 41.5976 28.0632 41.5976C26.7934 41.5976 25.9937 41.9319 25.2225 42.2543C24.5553 42.5332 23.9094 42.8031 22.999 42.8399C20.9928 42.913 19.4601 40.835 18.1485 38.9717C15.5264 35.1695 13.4852 28.2569 16.2221 23.5531C17.5482 21.2461 19.9662 19.7604 22.5509 19.7209C23.689 19.6978 24.7807 20.1332 25.7376 20.515C26.4694 20.8069 27.1225 21.0674 27.6574 21.0674C28.1272 21.0674 28.7619 20.8173 29.5017 20.5258C30.6675 20.0665 32.0943 19.5043 33.5478 19.6561C34.5418 19.6849 37.3704 20.0458 39.1954 22.6873L39.1916 22.6896Z" fill="white"/>
<path fill-rule="evenodd" clip-rule="evenodd" d="M53.7213 13.2846H50.886V21.6593H53.7213C56.2292 21.6593 57.7023 20.1097 57.7023 17.4691C57.7023 14.8342 56.2233 13.2846 53.7213 13.2846ZM51.9383 14.2248V20.7191H53.6511C55.5627 20.7191 56.6267 19.5584 56.6267 17.4807C56.6267 15.3856 55.5686 14.2248 53.6511 14.2248H51.9383Z" fill="white"/>
<path fill-rule="evenodd" clip-rule="evenodd" d="M61.7668 21.7637C60.0832 21.7637 58.9491 20.5624 58.9491 18.6414C58.9491 16.7146 60.0832 15.519 61.7668 15.519C63.4446 15.519 64.5787 16.7146 64.5787 18.6414C64.5787 20.5624 63.4446 21.7637 61.7668 21.7637ZM63.5439 18.6414C63.5439 20.0633 62.8424 20.8758 61.7668 20.8758C60.6911 20.8758 59.9838 20.0633 59.9838 18.6414C59.9838 17.2195 60.6911 16.407 61.7668 16.407C62.8424 16.407 63.5439 17.2195 63.5439 18.6414Z" fill="white"/>
<path d="M71.0048 21.6593H72.0396L73.7349 15.6235H72.7294L71.5134 20.5334H71.4901L70.1104 15.6235H69.1283L67.7545 20.5334H67.7311L66.5152 15.6235H65.5039L67.205 21.6593H68.2397L69.6077 16.9874H69.6311L71.0048 21.6593Z" fill="white"/>
<path d="M75.9228 15.6235H74.9641V21.6593H75.9813V18.1075C75.9813 17.086 76.6068 16.4128 77.5655 16.4128C78.5008 16.4128 78.9627 16.9467 78.9627 17.9217V21.6593H79.9799V17.7418C79.9799 16.3722 79.2082 15.519 77.8753 15.519C76.9341 15.519 76.2852 15.9369 75.9462 16.5869H75.9228V15.6235Z" fill="white"/>
<path d="M81.7235 13.2846V21.6593H82.7407V13.2846H81.7235Z" fill="white"/>
<path fill-rule="evenodd" clip-rule="evenodd" d="M84.2154 18.6414C84.2154 20.5624 85.3495 21.7637 87.0331 21.7637C88.7109 21.7637 89.845 20.5624 89.845 18.6414C89.845 16.7146 88.7109 15.519 87.0331 15.519C85.3495 15.519 84.2154 16.7146 84.2154 18.6414ZM87.0331 20.8758C88.1088 20.8758 88.8103 20.0633 88.8103 18.6414C88.8103 17.2195 88.1088 16.407 87.0331 16.407C85.9575 16.407 85.2501 17.2195 85.2501 18.6414C85.2501 20.0633 85.9575 20.8758 87.0331 20.8758Z" fill="white"/>
<path fill-rule="evenodd" clip-rule="evenodd" d="M93.0443 21.7637C91.8342 21.7637 91.0216 21.0383 91.0216 19.953C91.0216 18.92 91.8225 18.27 93.2255 18.1887L94.9675 18.09V17.5851C94.9675 16.8481 94.4765 16.407 93.6347 16.407C92.8513 16.407 92.3603 16.7726 92.2317 17.3646H91.2496C91.3197 16.3199 92.22 15.519 93.6581 15.519C95.0845 15.519 95.9847 16.2851 95.9847 17.4865V21.6593H95.0202V20.6204H94.9968C94.6343 21.3111 93.8627 21.7637 93.0443 21.7637ZM94.9675 19.3668C94.9675 20.2374 94.231 20.9048 93.2722 20.9048C92.5415 20.9048 92.0563 20.5276 92.0563 19.953C92.0563 19.3843 92.524 19.0244 93.3424 18.9722L94.9675 18.8735V19.3668Z" fill="white"/>
<path fill-rule="evenodd" clip-rule="evenodd" d="M97.3776 18.6414C97.3776 20.5334 98.4299 21.7637 99.979 21.7637C100.856 21.7637 101.552 21.3343 101.943 20.6378H101.961V21.6593H102.931V13.2846H101.914V16.6043H101.891C101.528 15.9427 100.827 15.519 99.9557 15.519C98.424 15.519 97.3776 16.7494 97.3776 18.6414ZM100.172 16.407C99.0963 16.407 98.4182 17.2775 98.4182 18.6414C98.4182 20.011 99.0963 20.8758 100.172 20.8758C101.218 20.8758 101.92 19.9936 101.92 18.6414C101.92 17.2949 101.218 16.407 100.172 16.407Z" fill="white"/>
<path fill-rule="evenodd" clip-rule="evenodd" d="M110.078 21.7637C108.394 21.7637 107.26 20.5624 107.26 18.6414C107.26 16.7146 108.394 15.519 110.078 15.519C111.756 15.519 112.89 16.7146 112.89 18.6414C112.89 20.5624 111.756 21.7637 110.078 21.7637ZM111.855 18.6414C111.855 20.0633 111.154 20.8758 110.078 20.8758C109.002 20.8758 108.295 20.0633 108.295 18.6414C108.295 17.2195 109.002 16.407 110.078 16.407C111.154 16.407 111.855 17.2195 111.855 18.6414Z" fill="white"/>
<path d="M115.271 15.6235H114.312V21.6593H115.329V18.1075C115.329 17.086 115.955 16.4128 116.913 16.4128C117.849 16.4128 118.311 16.9467 118.311 17.9217V21.6593H119.328V17.7418C119.328 16.3722 118.556 15.519 117.223 15.519C116.282 15.519 115.633 15.9369 115.294 16.5869H115.271V15.6235Z" fill="white"/>
<path d="M125.218 14.1668H124.201V15.6235H123.294V16.4534H124.201V20.0923C124.201 21.253 124.633 21.7057 125.75 21.7057C125.989 21.7057 126.27 21.6883 126.393 21.6593V20.8119C126.323 20.8236 126.089 20.841 125.972 20.841C125.452 20.841 125.218 20.5914 125.218 20.0401V16.4534H126.399V15.6235H125.218V14.1668Z" fill="white"/>
<path d="M127.932 13.2846V21.6593H128.949V18.1423C128.949 17.0976 129.574 16.4128 130.586 16.4128C131.539 16.4128 132.024 16.9874 132.024 17.945V21.6593H133.041V17.7592C133.041 16.4128 132.234 15.519 130.901 15.519C129.978 15.519 129.311 15.9137 128.972 16.5869H128.949V13.2846H127.932Z" fill="white"/>
<path fill-rule="evenodd" clip-rule="evenodd" d="M139.765 19.9298H138.766C138.596 20.4985 138.029 20.8874 137.258 20.8874C136.164 20.8874 135.48 20.1271 135.48 18.9722V18.9142H139.841V18.5311C139.841 16.703 138.83 15.519 137.187 15.519C135.51 15.519 134.434 16.79 134.434 18.6646C134.434 20.5624 135.492 21.7637 137.234 21.7637C138.561 21.7637 139.59 20.9861 139.765 19.9298ZM137.17 16.3954C136.217 16.3954 135.551 17.1208 135.486 18.1249H138.789C138.766 17.115 138.129 16.3954 137.17 16.3954Z" fill="white"/>
<path fill-rule="evenodd" clip-rule="evenodd" d="M60.7366 42.1893L59.2634 37.8683H53.1252L51.652 42.1893H49.0517L54.8662 26.2014H57.567L63.3816 42.1893H60.7366ZM53.7613 35.8739L56.1608 28.8605H56.2278L58.6273 35.8739H53.7613Z" fill="white"/>
<path fill-rule="evenodd" clip-rule="evenodd" d="M76.47 36.3614C76.47 32.6719 74.5058 30.3452 71.5259 30.3452C69.8296 30.3452 68.4792 31.1983 67.7872 32.539H67.7426V30.5335H65.4101V46.0451H67.8207V40.2726H67.8765C68.5461 41.5689 69.8854 42.3888 71.5706 42.3888C74.5169 42.3888 76.47 40.051 76.47 36.3614ZM70.8898 40.3612C72.7982 40.3612 73.9924 38.81 73.9924 36.3614C73.9924 33.9239 72.7982 32.3617 70.8898 32.3617C69.0484 32.3617 67.8096 33.9572 67.8096 36.3614C67.8096 38.7879 69.0372 40.3612 70.8898 40.3612Z" fill="white"/>
<path fill-rule="evenodd" clip-rule="evenodd" d="M84.9827 30.3452C87.9625 30.3452 89.9267 32.6719 89.9267 36.3614C89.9267 40.051 87.9736 42.3888 85.0273 42.3888C83.3421 42.3888 82.0028 41.5689 81.3332 40.2726H81.2774V46.0451H78.8668V30.5335H81.1993V32.539H81.2439C81.9359 31.1983 83.2863 30.3452 84.9827 30.3452ZM87.4491 36.3614C87.4491 38.81 86.2549 40.3612 84.3465 40.3612C82.4939 40.3612 81.2663 38.7879 81.2663 36.3614C81.2663 33.9572 82.5051 32.3617 84.3465 32.3617C86.2549 32.3617 87.4491 33.9239 87.4491 36.3614Z" fill="white"/>
<path d="M99.5416 37.7353H97.0752C97.2314 40.6271 99.642 42.4553 103.213 42.4553C107.03 42.4553 109.43 40.5828 109.43 37.5913C109.43 35.2535 108.057 33.935 104.753 33.1594L102.979 32.7273C100.903 32.2177 100.055 31.5529 100.055 30.4228C100.055 29.0046 101.383 28.0295 103.325 28.0295C105.267 28.0295 106.595 28.9935 106.74 30.5889H109.173C109.095 27.8301 106.762 25.9355 103.358 25.9355C99.921 25.9355 97.4992 27.8301 97.4992 30.5889C97.4992 32.816 98.872 34.1898 101.829 34.8989L103.916 35.3975C106.003 35.9072 106.885 36.6495 106.885 37.8904C106.885 39.3197 105.423 40.3612 103.392 40.3612C101.271 40.3612 99.7201 39.3197 99.5416 37.7353Z" fill="white"/>
<path d="M115.052 27.7747H112.63V30.5335H110.922V32.4282H112.63V39.1203C112.63 41.3694 113.556 42.2669 115.933 42.2669C116.469 42.2669 117.005 42.2226 117.273 42.1561V40.2615C117.116 40.2947 116.726 40.3169 116.48 40.3169C115.498 40.3169 115.052 39.8626 115.052 38.8544V32.4282H117.284V30.5335H115.052V27.7747Z" fill="white"/>
<path fill-rule="evenodd" clip-rule="evenodd" d="M119 36.3614C119 40.1174 121.21 42.4109 124.569 42.4109C127.928 42.4109 130.138 40.1174 130.138 36.3614C130.138 32.6165 127.917 30.323 124.569 30.323C121.221 30.323 119 32.6165 119 36.3614ZM124.569 40.4388C126.466 40.4388 127.683 38.9541 127.683 36.3614C127.683 33.7799 126.455 32.2952 124.569 32.2952C122.683 32.2952 121.455 33.7799 121.455 36.3614C121.455 38.9541 122.683 40.4388 124.569 40.4388Z" fill="white"/>
<path d="M132.546 30.5335H134.845V32.5168H134.901C135.291 31.154 136.34 30.3452 137.724 30.3452C138.07 30.3452 138.372 30.4006 138.55 30.4338V32.6608C138.36 32.5833 137.936 32.5279 137.468 32.5279C135.916 32.5279 134.957 33.5583 134.957 35.2092V42.1893H132.546V30.5335Z" fill="white"/>
<path fill-rule="evenodd" clip-rule="evenodd" d="M148.369 38.774H150.656C150.322 40.9013 148.29 42.4192 145.601 42.4192C142.152 42.4192 140.065 40.1036 140.065 36.4251C140.065 32.7688 142.186 30.3313 145.5 30.3313C148.759 30.3313 150.79 32.6137 150.79 36.1481V36.968H142.498V37.1121C142.498 39.1396 143.726 40.4803 145.657 40.4803C147.029 40.4803 148.045 39.7933 148.369 38.774ZM142.498 35.4327L148.369 35.3775C148.369 34.8865 148.162 33.9761 147.675 33.4933C147.189 33.0106 146.473 32.6441 145.5 32.6441C143.542 32.6441 142.498 33.943 142.498 35.4327Z" fill="white"/>
</g>
</g>
</svg>
