<svg width="43" height="43" viewBox="0 0 43 43" fill="none" xmlns="http://www.w3.org/2000/svg">
<g id="Icon-contact/social/facebook3">
<path id="Fill 183" fill-rule="evenodd" clip-rule="evenodd" d="M26.5273 14.653L24.6448 14.6543C23.1685 14.6543 22.8822 15.3555 22.8822 16.3843V18.6543H26.4035L25.9447 22.2105H22.8822V31.333H19.211V22.2105H16.141V18.6543H19.211V16.033C19.211 12.9893 21.0697 11.333 23.7835 11.333C25.0835 11.333 26.201 11.4293 26.5273 11.473V14.653ZM21.3335 1.33301C10.2885 1.33301 1.3335 10.2868 1.3335 21.333C1.3335 32.378 10.2885 41.333 21.3335 41.333C32.3798 41.333 41.3335 32.378 41.3335 21.333C41.3335 10.2868 32.3798 1.33301 21.3335 1.33301Z" fill="#BDC4CD"/>
</g>
</svg>
