<svg width="200" height="51" viewBox="0 0 200 51" fill="none" xmlns="http://www.w3.org/2000/svg">
<g id="Frame 11">
<path id="Union" d="M7.92667 13.8279L16.018 21.8003C17.307 23.0703 17.3019 25.1244 16.0067 26.3883C14.7114 27.6522 12.6165 27.6472 11.3275 26.3772L0.963412 16.1656C0.306961 15.5188 -0.0138559 14.6686 0.000458553 13.823C-0.0133528 12.9761 0.308973 12.1248 0.967619 11.4782L11.3502 1.28469C12.6416 0.0169181 14.7365 0.0156177 16.0294 1.28177C17.3224 2.54793 17.3237 4.60208 16.0324 5.86985L7.92667 13.8279Z" fill="#B90404"/>
<path id="Union_2" d="M27.0733 24.8279L18.982 32.8003C17.693 34.0703 17.6981 36.1244 18.9933 37.3883C20.2886 38.6522 22.3835 38.6473 23.6725 37.3772L34.0366 27.1656C34.693 26.5188 35.0138 25.6687 34.9995 24.8231C35.0134 23.9762 34.6911 23.1249 34.0324 22.4782L23.6497 12.2847C22.3585 11.0169 20.2635 11.0156 18.9706 12.2818C17.6776 13.5479 17.6763 15.6021 18.9676 16.8699L27.0733 24.8279Z" fill="#B90404"/>
<g id="SHIPAM">
<path d="M58.206 12.5603C58.2542 11.4239 57.886 10.5338 57.1014 9.88983C56.3237 9.24589 55.2328 8.92392 53.8287 8.92392C52.8514 8.92392 51.9567 9.08175 51.1446 9.3974C50.3393 9.70675 49.6751 10.1329 49.1521 10.6758C48.6359 11.2187 48.3158 11.8374 48.1919 12.5319C48.1025 13.0432 48.1438 13.4915 48.3158 13.8766C48.4879 14.2554 48.7529 14.5836 49.1108 14.8614C49.4687 15.1392 49.8782 15.3759 50.3393 15.5716C50.8073 15.7674 51.2822 15.9315 51.764 16.0641L53.901 16.6512C54.5342 16.8216 55.1639 17.0394 55.7903 17.3046C56.4166 17.5698 56.9741 17.9012 57.4627 18.2989C57.9514 18.6966 58.3127 19.1859 58.5467 19.7667C58.7876 20.3475 58.8358 21.042 58.6912 21.8501C58.4985 22.898 58.0374 23.8355 57.3079 24.6626C56.5852 25.4833 55.6354 26.1335 54.4585 26.6133C53.2816 27.0931 51.9223 27.333 50.3806 27.333C48.9421 27.333 47.7308 27.1152 46.7466 26.6796C45.7624 26.2377 45.0363 25.6285 44.5683 24.8519C44.1003 24.0754 43.9213 23.1758 44.0315 22.1531H46.0136C45.9379 22.917 46.0928 23.5641 46.4782 24.0944C46.8705 24.6247 47.428 25.0287 48.1507 25.3065C48.8802 25.578 49.7199 25.7137 50.6697 25.7137C51.7227 25.7137 52.6897 25.5527 53.5706 25.2307C54.4516 24.9025 55.1777 24.4479 55.749 23.8671C56.3271 23.28 56.685 22.5982 56.8226 21.8216C56.9465 21.1651 56.8605 20.6127 56.5645 20.1644C56.2755 19.7162 55.8247 19.3406 55.2121 19.0376C54.6065 18.7282 53.8838 18.4567 53.0441 18.2232L50.6284 17.5413C49.0523 17.0994 47.8788 16.4776 47.108 15.6758C46.344 14.874 46.0721 13.8513 46.2924 12.6076C46.4851 11.5596 46.9565 10.6411 47.7067 9.85195C48.4638 9.05649 49.4033 8.43781 50.5251 7.99589C51.647 7.55397 52.8583 7.33301 54.1591 7.33301C55.4737 7.33301 56.5921 7.55712 57.5143 8.00536C58.4435 8.45359 59.1317 9.07228 59.5791 9.86142C60.0333 10.6442 60.202 11.5439 60.085 12.5603H58.206Z" fill="#B90404"/>
<path d="M62.3975 27.0016L65.9076 7.60763H67.8381L66.2276 16.4997H78.2239L79.8344 7.60763H81.7649L78.2548 27.0016H76.3243L77.9348 18.0906H65.9385L64.328 27.0016H62.3975Z" fill="#B90404"/>
<path d="M89.3013 7.60763L85.7912 27.0016H83.8606L87.3707 7.60763H89.3013Z" fill="#B90404"/>
<path d="M91.4125 27.0016L94.9226 7.60763H101.747C103.247 7.60763 104.455 7.86962 105.37 8.39361C106.286 8.9176 106.915 9.63099 107.26 10.5338C107.611 11.4365 107.683 12.4561 107.476 13.5925C107.277 14.7162 106.836 15.7326 106.155 16.6417C105.48 17.5445 104.589 18.261 103.481 18.7913C102.38 19.3216 101.086 19.5868 99.5993 19.5868H94.2309L94.52 17.9959H99.8367C100.945 17.9959 101.898 17.8065 102.696 17.4277C103.502 17.0426 104.145 16.5186 104.627 15.8557C105.109 15.1865 105.425 14.4321 105.577 13.5925C105.728 12.7402 105.68 11.9826 105.432 11.3198C105.191 10.6569 104.737 10.1392 104.069 9.76672C103.409 9.38793 102.521 9.19854 101.406 9.19854H96.5641L93.343 27.0016H91.4125Z" fill="#B90404"/>
<path d="M107.456 27.0016H105.432L116.634 7.60763H118.698L122.879 27.0016H120.856L117.336 9.90877H117.201L107.456 27.0016ZM110.264 19.5679H120.753L120.464 21.1588H109.975L110.264 19.5679Z" fill="#B90404"/>
<path d="M130.013 7.60763H132.243L136.868 24.5016H137.064L147.77 7.60763H150L146.49 27.0016H144.673L147.522 11.3482H147.357L137.374 27.0016H135.619L131.335 11.3482H131.169L128.32 27.0016H126.503L130.013 7.60763Z" fill="#B90404"/>
</g>
</g>
</svg>
