<svg width="37" height="37" viewBox="0 0 37 37" fill="none" xmlns="http://www.w3.org/2000/svg">
<g id="material-symbols-light:order-approve-outline">
<path id="Vector" d="M26.7806 30.5665L31.159 26.256L30.1939 25.2893L26.7806 28.6548L25.3068 27.1517L24.3402 28.126L26.7806 30.5665ZM10.4374 13.4586H26.5663V11.9169H10.4359L10.4374 13.4586ZM27.7503 34.0938C26.0329 34.0938 24.5755 33.4956 23.3782 32.2993C22.1808 31.103 21.5826 29.6456 21.5837 27.9271C21.5837 26.2107 22.1818 24.7539 23.3782 23.5565C24.5745 22.3591 26.0319 21.7605 27.7503 21.7605C29.4677 21.7605 30.9251 22.3591 32.1225 23.5565C33.3199 24.7539 33.918 26.2107 33.917 27.9271C33.917 29.6456 33.3188 31.103 32.1225 32.2993C30.9241 33.4956 29.4667 34.0938 27.7503 34.0938ZM6.16699 32.0203V8.6563C6.16699 7.96768 6.40955 7.38031 6.89466 6.89417C7.37977 6.40906 7.96714 6.1665 8.65678 6.1665H28.3439C29.0325 6.1665 29.6199 6.40906 30.106 6.89417C30.5911 7.37928 30.8337 7.96666 30.8337 8.6563V17.8215C30.5829 17.729 30.3336 17.6499 30.0859 17.5841C29.8393 17.5183 29.5746 17.4669 29.292 17.4299V8.65784C29.292 8.42042 29.1933 8.20253 28.996 8.00417C28.7976 7.80684 28.5803 7.70817 28.3439 7.70817H8.65678C8.42039 7.70817 8.20302 7.80684 8.00466 8.00417C7.80733 8.20253 7.70866 8.41991 7.70866 8.6563V29.3686H17.489C17.5589 29.79 17.6493 30.2021 17.7603 30.605C17.8724 31.0079 18.0281 31.3923 18.2275 31.7582L18.1735 31.8121L16.4252 30.5372L14.3502 32.0187L12.2751 30.5372L10.1985 32.0187L8.12337 30.5372L6.16699 32.0187V32.0203ZM10.4374 25.0828H17.6971C17.7547 24.8001 17.8256 24.5355 17.9099 24.2888C17.9952 24.0421 18.0944 23.7929 18.2074 23.5411H10.4374V25.0828ZM10.4374 19.2722H21.707C22.2106 18.8745 22.7502 18.543 23.3257 18.2778C23.9013 18.0116 24.5164 17.8292 25.1711 17.7305H10.4359L10.4374 19.2722Z" fill="#B90404"/>
</g>
</svg>
