<svg width="37" height="37" viewBox="0 0 37 37" fill="none" xmlns="http://www.w3.org/2000/svg">
<g id="system-uicons:cart">
<g id="Group">
<path id="Vector" d="M8.80906 11.4525H30.8329L28.0385 21.2311C27.8279 21.9672 27.3834 22.6147 26.7721 23.0756C26.1608 23.5366 25.416 23.7859 24.6503 23.7859H12.8456C11.9778 23.7863 11.1403 23.4666 10.4937 22.8879C9.84699 22.3092 9.43661 21.5122 9.34115 20.6497L7.92811 7.92871H4.4043" stroke="#B90404" stroke-width="2" stroke-linecap="round" stroke-linejoin="round"/>
<g id="Group_2">
<path id="Vector_2" d="M12 30C13.1046 30 14 29.1046 14 28C14 26.8954 13.1046 26 12 26C10.8954 26 10 26.8954 10 28C10 29.1046 10.8954 30 12 30Z" fill="#B90404"/>
<path id="Vector_3" d="M25 30C26.1046 30 27 29.1046 27 28C27 26.8954 26.1046 26 25 26C23.8954 26 23 26.8954 23 28C23 29.1046 23.8954 30 25 30Z" fill="#B90404"/>
</g>
</g>
</g>
</svg>
