<svg width="35" height="35" viewBox="0 0 35 35" fill="none" xmlns="http://www.w3.org/2000/svg">
<g id="fluent:megaphone-20-regular">
<path id="Vector" d="M31.5 8.4035C31.5002 8.00093 31.4078 7.6037 31.23 7.24254C31.0522 6.88138 30.7936 6.56596 30.4744 6.32067C30.1552 6.07538 29.7839 5.9068 29.3891 5.82796C28.9943 5.74912 28.5867 5.76214 28.1978 5.866L5.44775 11.9332C4.88887 12.0825 4.39493 12.4122 4.04271 12.871C3.69048 13.3299 3.4997 13.8923 3.5 14.4708V18.8633C3.50005 19.4143 3.67349 19.9513 3.99574 20.3982C4.318 20.8452 4.77273 21.1794 5.2955 21.3535L8.75 22.505V24.0625C8.75036 25.3851 9.21168 26.6663 10.0546 27.6856C10.8975 28.7048 12.0693 29.3985 13.3684 29.6471C14.6675 29.8957 16.0126 29.6838 17.1723 29.0478C18.332 28.4118 19.2338 27.3915 19.7225 26.1625L28.0455 28.938C28.4401 29.0694 28.8602 29.1052 29.2713 29.0424C29.6824 28.9796 30.0727 28.8201 30.41 28.5769C30.7474 28.3337 31.0221 28.0139 31.2116 27.6437C31.4011 27.2735 31.5 26.8636 31.5 26.4478V8.4035ZM18.06 25.6095C17.7028 26.443 17.0689 27.1278 16.2654 27.5482C15.4619 27.9686 14.538 28.0989 13.6495 27.9171C12.7611 27.7353 11.9626 27.2525 11.3888 26.5503C10.815 25.848 10.5011 24.9693 10.5 24.0625V23.0895L18.06 25.6095ZM28.6493 7.5565C28.779 7.52185 28.915 7.51753 29.0466 7.54388C29.1783 7.57022 29.3022 7.62652 29.4086 7.70841C29.515 7.79031 29.6012 7.8956 29.6604 8.01613C29.7196 8.13667 29.7502 8.26921 29.75 8.4035V26.446C29.7502 26.5847 29.7174 26.7215 29.6543 26.845C29.5912 26.9686 29.4996 27.0753 29.3871 27.1565C29.2747 27.2377 29.1445 27.291 29.0074 27.312C28.8703 27.333 28.7301 27.3211 28.5985 27.2773L5.8485 19.6945C5.67405 19.6364 5.52234 19.5248 5.41491 19.3756C5.30747 19.2264 5.24977 19.0471 5.25 18.8633V14.4725C5.24964 14.2795 5.31312 14.0918 5.43055 13.9386C5.54798 13.7854 5.71276 13.6753 5.89925 13.6255L28.6493 7.5565Z" fill="#B90404"/>
</g>
</svg>
