<svg width="62" height="62" viewBox="0 0 62 62" fill="none" xmlns="http://www.w3.org/2000/svg">
<g id="fluent:people-16-regular">
<path id="Vector" d="M15.5 21.3125C15.5 20.5492 15.6503 19.7934 15.9424 19.0882C16.2346 18.3829 16.6627 17.7422 17.2024 17.2024C17.7422 16.6627 18.3829 16.2346 19.0882 15.9424C19.7934 15.6503 20.5492 15.5 21.3125 15.5C22.0758 15.5 22.8316 15.6503 23.5368 15.9424C24.2421 16.2346 24.8828 16.6627 25.4226 17.2024C25.9623 17.7422 26.3904 18.3829 26.6826 19.0882C26.9747 19.7934 27.125 20.5492 27.125 21.3125C27.125 22.8541 26.5126 24.3325 25.4226 25.4226C24.3325 26.5126 22.8541 27.125 21.3125 27.125C19.7709 27.125 18.2925 26.5126 17.2024 25.4226C16.1124 24.3325 15.5 22.8541 15.5 21.3125ZM21.3125 11.625C18.7432 11.625 16.2792 12.6456 14.4624 14.4624C12.6456 16.2792 11.625 18.7432 11.625 21.3125C11.625 23.8818 12.6456 26.3458 14.4624 28.1626C16.2792 29.9794 18.7432 31 21.3125 31C23.8818 31 26.3458 29.9794 28.1626 28.1626C29.9794 26.3458 31 23.8818 31 21.3125C31 18.7432 29.9794 16.2792 28.1626 14.4624C26.3458 12.6456 23.8818 11.625 21.3125 11.625ZM40.6875 23.25C40.6875 22.2223 41.0958 21.2367 41.8225 20.51C42.5492 19.7833 43.5348 19.375 44.5625 19.375C45.5902 19.375 46.5758 19.7833 47.3025 20.51C48.0292 21.2367 48.4375 22.2223 48.4375 23.25C48.4375 24.2777 48.0292 25.2633 47.3025 25.99C46.5758 26.7167 45.5902 27.125 44.5625 27.125C43.5348 27.125 42.5492 26.7167 41.8225 25.99C41.0958 25.2633 40.6875 24.2777 40.6875 23.25ZM44.5625 15.5C42.5071 15.5 40.5358 16.3165 39.0824 17.7699C37.629 19.2233 36.8125 21.1946 36.8125 23.25C36.8125 25.3054 37.629 27.2767 39.0824 28.7301C40.5358 30.1835 42.5071 31 44.5625 31C46.6179 31 48.5892 30.1835 50.0426 28.7301C51.496 27.2767 52.3125 25.3054 52.3125 23.25C52.3125 21.1946 51.496 19.2233 50.0426 17.7699C48.5892 16.3165 46.6179 15.5 44.5625 15.5ZM5.8125 40.6875C5.8125 39.1459 6.42489 37.6675 7.51494 36.5774C8.605 35.4874 10.0834 34.875 11.625 34.875H31C32.5416 34.875 34.02 35.4874 35.1101 36.5774C36.2001 37.6675 36.8125 39.1459 36.8125 40.6875V41.1215C36.8084 41.299 36.7955 41.4762 36.7737 41.6524C36.5529 43.531 35.8538 45.3215 34.7432 46.8526C32.6236 49.7782 28.5936 52.3125 21.3125 52.3125C14.0352 52.3125 10.0052 49.7782 7.87787 46.8526C6.7687 45.3211 6.07092 43.5306 5.85125 41.6524C5.83196 41.4759 5.81903 41.2989 5.8125 41.1215V40.6875ZM9.6875 41.0363V41.0634L9.703 41.2533C9.85306 42.4528 10.3036 43.5951 11.0128 44.5741C12.276 46.3101 15.0273 48.4375 21.3125 48.4375C27.5977 48.4375 30.349 46.3101 31.6122 44.5741C32.3214 43.5951 32.7719 42.4528 32.922 41.2533C32.9289 41.1888 32.9341 41.1242 32.9375 41.0595V40.6875C32.9375 40.1736 32.7334 39.6808 32.37 39.3175C32.0067 38.9541 31.5139 38.75 31 38.75H11.625C11.1111 38.75 10.6183 38.9541 10.255 39.3175C9.89163 39.6808 9.6875 40.1736 9.6875 40.6875V41.0363ZM44.5625 48.4375C42.284 48.4375 40.4162 48.0887 38.905 47.5153C39.5262 46.3773 39.9965 45.1632 40.3039 43.9038C41.3424 44.2951 42.7219 44.5625 44.5625 44.5625C48.8986 44.5625 50.6772 43.0822 51.46 41.9817C51.9175 41.3399 52.2079 40.594 52.3048 39.8118L52.3125 39.7033C52.3084 39.449 52.2046 39.2066 52.0233 39.0282C51.8421 38.8499 51.598 38.75 51.3438 38.75H40.4937C40.2077 37.3448 39.612 36.021 38.75 34.875H51.3438C54.0175 34.875 56.1875 37.045 56.1875 39.7188V39.7846C56.1829 39.9258 56.1725 40.0667 56.1565 40.207C55.9923 41.6593 55.4616 43.0461 54.6143 44.237C52.979 46.5271 49.9139 48.4375 44.5625 48.4375Z" fill="#B90404"/>
</g>
</svg>
