<svg width="43" height="43" viewBox="0 0 43 43" fill="none" xmlns="http://www.w3.org/2000/svg">
<g id="Icon-contact/social/instagram3">
<path id="Combined Shape" fill-rule="evenodd" clip-rule="evenodd" d="M21.3569 25.1928C23.4806 25.1928 25.2031 23.4753 25.2031 21.3553C25.2031 19.2365 23.4806 17.519 21.3569 17.519C19.2331 17.519 17.5106 19.2365 17.5106 21.3553C17.5106 23.4753 19.2331 25.1928 21.3569 25.1928ZM25.7857 17.4255H28.4895C28.7982 17.4255 29.0495 17.1755 29.0495 16.868V14.1693C29.0495 13.8618 28.7982 13.6118 28.4895 13.6118H25.7857C25.477 13.6118 25.2257 13.8618 25.2257 14.1693V16.868C25.2257 17.1755 25.477 17.4255 25.7857 17.4255ZM31.3335 28.9605C31.3335 30.2705 30.2697 31.333 28.956 31.333H13.711C12.3985 31.333 11.3335 30.2705 11.3335 28.9605V13.7043C11.3335 12.3943 12.3985 11.333 13.711 11.333H28.956C30.2697 11.333 31.3335 12.3943 31.3335 13.7043V28.9605ZM21.3335 1.33301C10.2872 1.33301 1.3335 10.2868 1.3335 21.333C1.3335 32.378 10.2872 41.333 21.3335 41.333C32.3797 41.333 41.3335 32.378 41.3335 21.333C41.3335 10.2868 32.3797 1.33301 21.3335 1.33301ZM27.4407 21.3558C27.4407 24.702 24.712 27.4258 21.357 27.4258C18.002 27.4258 15.2732 24.702 15.2732 21.3558C15.2732 20.8008 15.3482 20.262 15.4895 19.7508H13.6182V28.4483C13.6182 28.757 13.8682 29.007 14.177 29.007H28.5357C28.8457 29.007 29.0957 28.757 29.0957 28.4483V19.7508H27.2245C27.3657 20.262 27.4407 20.8008 27.4407 21.3558Z" fill="#BDC4CD"/>
</g>
</svg>
