<svg width="43" height="43" viewBox="0 0 43 43" fill="none" xmlns="http://www.w3.org/2000/svg">
<g id="Icon-contact/social/linkedin3">
<path id="Fill 209" fill-rule="evenodd" clip-rule="evenodd" d="M31.3335 31.3143H27.1897V24.8293C27.1897 23.283 27.1622 21.2943 25.036 21.2943C22.8797 21.2943 22.551 22.9793 22.551 24.7193V31.3143H18.411V17.9793H22.3835V19.803H22.441C22.9935 18.7543 24.346 17.648 26.3622 17.648C30.5585 17.648 31.3335 20.4093 31.3335 24.0005V31.3143ZM13.7385 16.158C12.4072 16.158 11.3335 15.0805 11.3335 13.7543C11.3335 12.428 12.4072 11.3505 13.7385 11.3505C15.0635 11.3505 16.1397 12.428 16.1397 13.7543C16.1397 15.0805 15.0635 16.158 13.7385 16.158ZM15.811 31.3143H11.6622V17.9793H15.811V31.3143ZM21.3335 1.33301C10.2872 1.33301 1.3335 10.2868 1.3335 21.333C1.3335 32.378 10.2872 41.333 21.3335 41.333C32.3797 41.333 41.3335 32.378 41.3335 21.333C41.3335 10.2868 32.3797 1.33301 21.3335 1.33301Z" fill="#BDC4CD"/>
</g>
</svg>
