<svg width="30" height="30" viewBox="0 0 30 30" fill="none" xmlns="http://www.w3.org/2000/svg">
<g id="solar:login-2-outline">
<g id="Group">
<path id="Vector" d="M18.5909 1.5625C16.8821 1.5625 15.5034 1.5625 14.4196 1.70875C13.2946 1.85875 12.3471 2.18375 11.5946 2.935C10.9396 3.59125 10.6071 4.3975 10.4334 5.345C10.2646 6.26625 10.2321 7.3925 10.2246 8.745C10.2233 8.99364 10.3208 9.23262 10.4957 9.40938C10.6706 9.58613 10.9085 9.68617 11.1571 9.6875C11.4058 9.68883 11.6447 9.59133 11.8215 9.41645C11.9983 9.24157 12.0983 9.00364 12.0996 8.755C12.1071 7.38875 12.1421 6.42 12.2771 5.68375C12.4084 4.97625 12.6171 4.565 12.9209 4.26125C13.2671 3.915 13.7534 3.69 14.6709 3.56625C15.6146 3.44 16.8659 3.4375 18.6596 3.4375H19.9096C21.7046 3.4375 22.9559 3.44 23.8996 3.56625C24.8171 3.69 25.3021 3.91625 25.6496 4.26125C25.9946 4.6075 26.2196 5.0925 26.3434 6.01125C26.4709 6.95375 26.4721 8.20625 26.4721 10V20C26.4721 21.7938 26.4709 23.045 26.3434 23.99C26.2196 24.9075 25.9946 25.3925 25.6484 25.7388C25.3021 26.085 24.8171 26.31 23.8996 26.4338C22.9559 26.56 21.7046 26.5625 19.9096 26.5625H18.6596C16.8659 26.5625 15.6146 26.56 14.6696 26.4338C13.7534 26.31 13.2671 26.0837 12.9209 25.7388C12.6171 25.4338 12.4084 25.0237 12.2771 24.3162C12.1421 23.58 12.1071 22.6112 12.0996 21.245C12.099 21.1219 12.0741 21.0001 12.0263 20.8866C11.9786 20.7731 11.909 20.6701 11.8215 20.5836C11.734 20.497 11.6303 20.4285 11.5163 20.3819C11.4023 20.3354 11.2802 20.3118 11.1571 20.3125C11.034 20.3132 10.9122 20.3381 10.7987 20.3858C10.6852 20.4335 10.5823 20.5031 10.4957 20.5906C10.4091 20.6781 10.3406 20.7819 10.2941 20.8959C10.2476 21.0098 10.224 21.1319 10.2246 21.255C10.2321 22.6075 10.2646 23.7338 10.4334 24.655C10.6084 25.6025 10.9396 26.4088 11.5959 27.065C12.3471 27.8175 13.2959 28.14 14.4209 28.2925C15.5034 28.4375 16.8821 28.4375 18.5909 28.4375H19.9784C21.6884 28.4375 23.0659 28.4375 24.1496 28.2925C25.2746 28.14 26.2221 27.8175 26.9746 27.065C27.7271 26.3125 28.0496 25.365 28.2021 24.24C28.3471 23.1562 28.3471 21.7775 28.3471 20.0688V9.93125C28.3471 8.2225 28.3471 6.84375 28.2021 5.76C28.0509 4.635 27.7271 3.6875 26.9746 2.935C26.2221 2.1825 25.2746 1.86 24.1496 1.70875C23.0659 1.5625 21.6871 1.5625 19.9784 1.5625H18.5909Z" fill="white"/>
<path id="Vector_2" d="M2.50098 14.061C2.25234 14.061 2.01388 14.1598 1.83806 14.3356C1.66225 14.5114 1.56348 14.7499 1.56348 14.9985C1.56348 15.2471 1.66225 15.4856 1.83806 15.6614C2.01388 15.8372 2.25234 15.936 2.50098 15.936H17.4672L15.016 18.036C14.9224 18.1161 14.8455 18.2139 14.7897 18.3237C14.734 18.4335 14.7003 18.5532 14.6908 18.676C14.6716 18.924 14.7517 19.1695 14.9135 19.3585C15.0753 19.5475 15.3055 19.6644 15.5535 19.6837C15.8015 19.7029 16.047 19.6228 16.236 19.461L20.611 15.711C20.7139 15.623 20.7965 15.5137 20.8532 15.3907C20.9098 15.2677 20.9392 15.1339 20.9392 14.9985C20.9392 14.8631 20.9098 14.7293 20.8532 14.6063C20.7965 14.4833 20.7139 14.374 20.611 14.286L16.236 10.536C16.047 10.3742 15.8015 10.2941 15.5535 10.3134C15.3055 10.3326 15.0753 10.4495 14.9135 10.6385C14.7517 10.8275 14.6716 11.073 14.6908 11.321C14.71 11.569 14.827 11.7992 15.016 11.961L17.466 14.061H2.50223H2.50098Z" fill="white"/>
</g>
</g>
</svg>
