<svg width="150" height="46" viewBox="0 0 150 46" fill="none" xmlns="http://www.w3.org/2000/svg">
<g id="Frame 11">
<path id="Union" d="M7.92667 14.4595L16.018 22.4318C17.307 23.7019 17.3019 25.756 16.0067 27.0199C14.7114 28.2838 12.6165 28.2788 11.3275 27.0088L0.963412 16.7972C0.306961 16.1504 -0.0138559 15.3002 0.000458553 14.4546C-0.0133528 13.6077 0.308973 12.7564 0.967619 12.1098L11.3502 1.91628C12.6416 0.64851 14.7365 0.647209 16.0294 1.91336C17.3224 3.17952 17.3237 5.23367 16.0324 6.50144L7.92667 14.4595Z" fill="#E8E8E8"/>
<path id="Union_2" d="M27.0733 25.4595L18.982 33.4319C17.693 34.7019 17.6981 36.756 18.9933 38.0199C20.2886 39.2838 22.3835 39.2788 23.6725 38.0088L34.0366 27.7972C34.693 27.1504 35.0138 26.3003 34.9995 25.4547C35.0134 24.6077 34.6911 23.7565 34.0324 23.1098L23.6497 12.9163C22.3585 11.6485 20.2635 11.6472 18.9706 12.9134C17.6776 14.1795 17.6763 16.2337 18.9676 17.5014L27.0733 25.4595Z" fill="#E8E8E8"/>
<g id="SHIPAM">
<path d="M58.206 13.1919C58.2542 12.0555 57.886 11.1654 57.1014 10.5214C56.3237 9.87748 55.2328 9.55551 53.8287 9.55551C52.8514 9.55551 51.9567 9.71334 51.1446 10.029C50.3393 10.3383 49.6751 10.7645 49.1521 11.3074C48.6359 11.8503 48.3158 12.469 48.1919 13.1635C48.1025 13.6748 48.1438 14.1231 48.3158 14.5082C48.4879 14.8869 48.7529 15.2152 49.1108 15.493C49.4687 15.7708 49.8782 16.0075 50.3393 16.2032C50.8073 16.3989 51.2822 16.5631 51.764 16.6957L53.901 17.2828C54.5342 17.4532 55.1639 17.671 55.7903 17.9362C56.4166 18.2013 56.9741 18.5328 57.4627 18.9305C57.9514 19.3282 58.3127 19.8175 58.5467 20.3983C58.7876 20.9791 58.8358 21.6736 58.6912 22.4816C58.4985 23.5296 58.0374 24.4671 57.3079 25.2941C56.5852 26.1149 55.6354 26.7651 54.4585 27.2449C53.2816 27.7247 51.9223 27.9646 50.3806 27.9646C48.9421 27.9646 47.7308 27.7468 46.7466 27.3112C45.7624 26.8693 45.0363 26.2601 44.5683 25.4835C44.1003 24.707 43.9213 23.8074 44.0315 22.7847H46.0136C45.9379 23.5486 46.0928 24.1957 46.4782 24.726C46.8705 25.2563 47.428 25.6603 48.1507 25.9381C48.8802 26.2095 49.7199 26.3453 50.6697 26.3453C51.7227 26.3453 52.6897 26.1843 53.5706 25.8623C54.4516 25.534 55.1777 25.0795 55.749 24.4987C56.3271 23.9116 56.685 23.2298 56.8226 22.4532C56.9465 21.7967 56.8605 21.2443 56.5645 20.796C56.2755 20.3478 55.8247 19.9722 55.2121 19.6691C54.6065 19.3598 53.8838 19.0883 53.0441 18.8548L50.6284 18.1729C49.0523 17.731 47.8788 17.1092 47.108 16.3074C46.344 15.5056 46.0721 14.4829 46.2924 13.2392C46.4851 12.1912 46.9565 11.2727 47.7067 10.4835C48.4638 9.68809 49.4033 9.0694 50.5251 8.62748C51.647 8.18556 52.8583 7.9646 54.1591 7.9646C55.4737 7.9646 56.5921 8.18872 57.5143 8.63695C58.4435 9.08518 59.1317 9.70387 59.5791 10.493C60.0333 11.2758 60.202 12.1755 60.085 13.1919H58.206Z" fill="#E8E8E8"/>
<path d="M62.3975 27.6332L65.9076 8.23922H67.8381L66.2276 17.1313H78.2239L79.8344 8.23922H81.7649L78.2548 27.6332H76.3243L77.9348 18.7222H65.9385L64.328 27.6332H62.3975Z" fill="#E8E8E8"/>
<path d="M89.3013 8.23922L85.7912 27.6332H83.8606L87.3707 8.23922H89.3013Z" fill="#E8E8E8"/>
<path d="M91.4125 27.6332L94.9226 8.23922H101.747C103.247 8.23922 104.455 8.50122 105.37 9.02521C106.286 9.5492 106.915 10.2626 107.26 11.1654C107.611 12.0681 107.683 13.0877 107.476 14.2241C107.277 15.3478 106.836 16.3642 106.155 17.2733C105.48 18.1761 104.589 18.8926 103.481 19.4229C102.38 19.9532 101.086 20.2184 99.5993 20.2184H94.2309L94.52 18.6275H99.8367C100.945 18.6275 101.898 18.4381 102.696 18.0593C103.502 17.6742 104.145 17.1502 104.627 16.4873C105.109 15.8181 105.425 15.0637 105.577 14.2241C105.728 13.3718 105.68 12.6142 105.432 11.9513C105.191 11.2885 104.737 10.7708 104.069 10.3983C103.409 10.0195 102.521 9.83013 101.406 9.83013H96.5641L93.343 27.6332H91.4125Z" fill="#E8E8E8"/>
<path d="M107.456 27.6332H105.432L116.634 8.23922H118.698L122.879 27.6332H120.856L117.336 10.5404H117.201L107.456 27.6332ZM110.264 20.1994H120.753L120.464 21.7904H109.975L110.264 20.1994Z" fill="#E8E8E8"/>
<path d="M130.013 8.23922H132.243L136.868 25.1332H137.064L147.77 8.23922H150L146.49 27.6332H144.673L147.522 11.9798H147.357L137.374 27.6332H135.619L131.335 11.9798H131.169L128.32 27.6332H126.503L130.013 8.23922Z" fill="#E8E8E8"/>
</g>
</g>
</svg>
