<svg width="12" height="14" viewBox="0 0 12 14" fill="none" xmlns="http://www.w3.org/2000/svg">
<g id="Logo">
<path id="Path" d="M10.099 1.05579C9.46156 0.316817 8.30919 0 6.83496 0H2.55634C2.25502 1.13472e-05 1.99842 0.222835 1.9512 0.525501L0.169662 12.0167C0.134251 12.2433 0.306777 12.4485 0.532603 12.4485H3.17407L3.83746 8.16914L3.81687 8.30314C3.86413 8.00065 4.11851 7.77755 4.41973 7.77755H5.67495C8.14082 7.77755 10.0716 6.75893 10.6357 3.81228C10.6524 3.72513 10.6669 3.64031 10.6794 3.55744C10.6083 3.5191 10.6083 3.5191 10.6794 3.55744C10.8474 2.46833 10.6783 1.72698 10.099 1.05579Z" fill="#27346A"/>
<path id="Path_2" d="M4.84818 3.1651C4.9204 3.13013 4.99938 3.11201 5.07936 3.11206H8.43372C8.83093 3.11206 9.20142 3.13835 9.53997 3.19377C9.63471 3.20913 9.72896 3.22747 9.82258 3.24876C9.95527 3.27854 10.0864 3.31499 10.2156 3.35797C10.382 3.4145 10.537 3.48034 10.6795 3.55744C10.8474 2.46791 10.6783 1.72698 10.099 1.05579C9.46119 0.316817 8.30919 0 6.83496 0H2.55598C2.25471 0 1.99841 0.223061 1.9512 0.525501L0.169662 12.0163C0.134251 12.2432 0.306778 12.4481 0.532237 12.4481H3.17407L4.55039 3.57177C4.57786 3.39466 4.68921 3.24261 4.84818 3.1651Z" fill="#27346A"/>
<path id="Path_3" d="M10.6354 3.81197C10.0713 6.7582 8.14057 7.77724 5.67465 7.77724H4.41906C4.11784 7.77724 3.86342 8.00034 3.81662 8.30283L2.99132 13.6237C2.96048 13.822 3.11128 14.0017 3.30855 14.0017H5.53525C5.79875 14.0016 6.02308 13.8067 6.06426 13.542L6.08595 13.4266L6.50562 10.7216L6.53266 10.5721C6.57384 10.3074 6.79814 10.1124 7.06163 10.1124H7.39488C9.55189 10.1124 11.2409 9.22113 11.7344 6.6436C11.9404 5.56645 11.8338 4.66713 11.2889 4.03545C11.1236 3.84412 10.9183 3.68611 10.6791 3.55713C10.6662 3.64042 10.6522 3.72482 10.6354 3.81197Z" fill="#2790C3"/>
<path id="Path_4" d="M10.0893 3.3179C10.0014 3.29178 9.9126 3.26866 9.82314 3.24857C9.72947 3.22762 9.63523 3.20941 9.54053 3.19394C9.20161 3.13815 8.8314 3.11182 8.43382 3.11182H5.07988C4.99983 3.11163 4.92079 3.12991 4.8487 3.16528C4.68953 3.24256 4.57808 3.39472 4.55086 3.57195L3.83797 8.16894L3.81738 8.30294C3.86428 8.00046 4.11865 7.77735 4.41992 7.77735H5.67551C8.14138 7.77735 10.0722 6.75873 10.6362 3.81208C10.653 3.72493 10.6671 3.64048 10.68 3.55724C10.5372 3.48056 10.3826 3.4143 10.2161 3.35814C10.1741 3.34398 10.1318 3.33056 10.0894 3.3179" fill="#1F264F"/>
</g>
</svg>
