<svg width="39" height="39" viewBox="0 0 39 39" fill="none" xmlns="http://www.w3.org/2000/svg">
<g id="ph:handshake-light">
<path id="Vector" d="M17.9488 33.1273C17.8995 33.3252 17.7855 33.501 17.6248 33.6266C17.4642 33.7522 17.2661 33.8204 17.0622 33.8205C16.9872 33.8203 16.9125 33.8111 16.8397 33.7931L11.9647 32.5743C11.8634 32.5484 11.7671 32.5057 11.6799 32.4479L8.02361 30.0104C7.92358 29.9438 7.83765 29.8581 7.77073 29.7583C7.70381 29.6584 7.65721 29.5464 7.63358 29.4286C7.58587 29.1906 7.63465 28.9434 7.7692 28.7414C7.90374 28.5394 8.11303 28.3991 8.35102 28.3513C8.46886 28.3277 8.5902 28.3275 8.70811 28.3508C8.82602 28.3741 8.93819 28.4203 9.03822 28.487L12.5619 30.8361L17.2846 32.0168C17.4012 32.046 17.5109 32.0979 17.6074 32.1695C17.7039 32.2411 17.7854 32.3311 17.8471 32.4343C17.9088 32.5374 17.9495 32.6518 17.967 32.7707C17.9844 32.8896 17.9783 33.0108 17.9488 33.1273ZM38.1694 18.4109C38.0819 18.6767 37.9426 18.9224 37.7596 19.134C37.5766 19.3455 37.3534 19.5187 37.103 19.6434L33.4467 21.4715L25.0206 29.8977C24.8491 30.0686 24.6168 30.1645 24.3747 30.1643C24.2997 30.1642 24.225 30.155 24.1522 30.1368L14.4022 27.6993C14.2927 27.6709 14.1894 27.6223 14.0976 27.5561L5.62115 21.505L1.89939 19.6434C1.3936 19.3904 1.00899 18.9469 0.830154 18.4104C0.651314 17.8738 0.692884 17.2883 0.945721 16.7824L4.73146 9.21243C4.98446 8.70664 5.42798 8.32203 5.9645 8.14319C6.50102 7.96435 7.0866 8.00592 7.59248 8.25876L11.0598 9.99243L19.2483 7.65243C19.4126 7.60544 19.5867 7.60544 19.751 7.65243L27.9395 9.99243L31.4069 8.25876C31.9127 8.00592 32.4983 7.96435 33.0348 8.14319C33.5713 8.32203 34.0149 8.70664 34.2679 9.21243L38.0536 16.7824C38.1795 17.0328 38.2545 17.3056 38.2744 17.5851C38.2943 17.8646 38.2586 18.1453 38.1694 18.4109ZM2.71748 18.0088L5.68513 19.5002L9.74967 11.3772L6.77439 9.89341C6.70206 9.85749 6.61843 9.85175 6.54187 9.87746C6.46532 9.90317 6.4021 9.95822 6.36611 10.0305L2.58037 17.6005C2.54494 17.6726 2.53947 17.7559 2.56514 17.832C2.57704 17.8704 2.59671 17.9058 2.62292 17.9362C2.64913 17.9666 2.68132 17.9913 2.71748 18.0088ZM29.0973 23.2311L24.4158 19.4819C21.5213 21.9773 17.7767 22.346 14.6963 20.3777C14.4268 20.2063 14.1992 19.9766 14.0304 19.7055C13.8615 19.4344 13.7557 19.1288 13.7208 18.8114C13.6858 18.4939 13.7226 18.1726 13.8284 17.8713C13.9343 17.57 14.1064 17.2962 14.3322 17.0703L21.2973 10.3124C21.3986 10.2146 21.5212 10.1417 21.6553 10.0991L19.4997 9.48208L11.6067 11.7307L7.26037 20.4295L15.0147 25.9672L24.0944 28.2371L29.0973 23.2311ZM31.7908 20.5377L27.4657 11.883H22.3074L15.6179 18.3729C15.5883 18.404 15.5659 18.4413 15.5525 18.4822C15.539 18.523 15.5349 18.5663 15.5403 18.609C15.545 18.6555 15.5604 18.7003 15.5852 18.74C15.61 18.7796 15.6437 18.813 15.6835 18.8375C17.7081 20.1309 20.8845 20.4935 23.7257 17.6309C23.8847 17.4713 24.097 17.3761 24.3219 17.3634C24.5469 17.3508 24.7685 17.4216 24.9444 17.5624L30.4014 21.9377L31.7908 20.5377ZM36.4159 17.6005L32.6332 10.0305C32.5972 9.95822 32.534 9.90317 32.4575 9.87746C32.3809 9.85175 32.2973 9.85749 32.2249 9.89341L29.2573 11.3772L33.3142 19.5002L36.2819 18.0164C36.318 17.9989 36.3502 17.9743 36.3764 17.9439C36.4026 17.9135 36.4223 17.878 36.4342 17.8397C36.448 17.8008 36.4537 17.7596 36.4511 17.7185C36.4485 17.6774 36.4375 17.6372 36.419 17.6005H36.4159Z" fill="white"/>
</g>
</svg>
