<svg width="166" height="57" viewBox="0 0 166 57" fill="none" xmlns="http://www.w3.org/2000/svg">
<g id="Group">
<rect id="&#226;&#151;&#188;&#239;&#184;&#143; Background" x="0.333984" y="0.333008" width="165.333" height="56" rx="6" fill="#1C1C1C"/>
<g id="Logo">
<path d="M51.1573 15.2537H47.7724V16.2508H50.1731C50.0544 17.6493 48.8826 18.2456 47.7765 18.2456C46.3613 18.2456 45.1263 17.1402 45.1263 15.5907C45.1263 14.0814 46.3035 12.919 47.7794 12.919C48.9185 12.919 49.5894 13.6396 49.5894 13.6396L50.2927 12.9166C50.2927 12.9166 49.39 11.9189 47.7435 11.9189C45.6471 11.9189 44.0254 13.6756 44.0254 15.5728C44.0254 17.4322 45.5509 19.2449 47.7969 19.2449C49.7725 19.2449 51.2187 17.9016 51.2187 15.9149C51.2187 15.4958 51.1573 15.2537 51.1573 15.2537Z" fill="white"/>
<path d="M51.795 31.3254H59.233C59.2382 31.3464 59.3674 31.8758 59.3674 32.7781C59.3674 37.1437 56.1899 40.096 51.849 40.096C46.9134 40.096 43.5611 36.1123 43.5611 32.0269C43.5611 27.8576 47.125 23.9976 51.7316 23.9978C55.3494 23.9978 57.333 26.19 57.333 26.19L55.7875 27.7788C55.7875 27.7788 54.313 26.195 51.8106 26.195C48.5673 26.195 45.9805 28.7493 45.9805 32.066C45.9805 35.4704 48.6941 37.8997 51.8038 37.8997C54.2344 37.8997 56.8094 36.5892 57.0702 33.5166H51.795V31.3254Z" fill="white"/>
<path fill-rule="evenodd" clip-rule="evenodd" d="M60.3163 34.8702C60.3163 32.1073 62.5035 29.7385 65.5558 29.7385C68.0645 29.7385 70.7851 31.5034 70.7851 34.9303C70.7851 37.9202 68.4462 40.0865 65.5913 40.0865C62.4377 40.0865 60.3163 37.6737 60.3163 34.8702ZM68.5091 34.9167C68.5091 32.9755 67.0869 31.7707 65.5859 31.7707C63.8995 31.7707 62.6034 33.1093 62.6034 34.9015C62.6034 36.7331 63.9158 38.0556 65.579 38.0556C67.0928 38.0556 68.5091 36.8165 68.5091 34.9167Z" fill="white"/>
<path fill-rule="evenodd" clip-rule="evenodd" d="M77.0742 29.7385C74.0221 29.7385 71.8347 32.1073 71.8347 34.8702C71.8347 37.6737 73.9562 40.0865 77.11 40.0865C79.9648 40.0865 82.3036 37.9202 82.3036 34.9303C82.3036 31.5034 79.5832 29.7385 77.0742 29.7385ZM77.1045 31.7707C78.6053 31.7707 80.0277 32.9755 80.0277 34.9167C80.0277 36.8165 78.6114 38.0556 77.0974 38.0556C75.4343 38.0556 74.1222 36.7331 74.1222 34.9015C74.1222 33.1093 75.4179 31.7707 77.1045 31.7707Z" fill="white"/>
<path fill-rule="evenodd" clip-rule="evenodd" d="M83.353 34.9137C83.353 32.1798 85.5552 29.744 88.3564 29.744C89.576 29.744 90.4948 30.2126 91.1666 30.9314V30.0551H93.3517V39.3523C93.3517 43.0052 91.2289 44.7465 88.4434 44.7465C85.897 44.7465 84.4666 43.1922 83.7558 41.6998L85.759 40.8684C86.0364 41.5352 86.835 42.7109 88.4268 42.7109C90.0747 42.7109 91.1665 41.6414 91.1665 39.8563V38.8361C90.5834 39.5079 89.7937 40.0934 88.3081 40.0934C85.9059 40.0934 83.353 38.0281 83.353 34.9137ZM88.5592 31.7722C89.9327 31.7722 91.3432 32.9365 91.3432 34.9248C91.3432 36.9458 89.9357 38.0595 88.5289 38.0595C87.0356 38.0595 85.6458 36.8557 85.6458 34.944C85.6458 32.9576 87.0891 31.7722 88.5592 31.7722Z" fill="white"/>
<path fill-rule="evenodd" clip-rule="evenodd" d="M98.6655 34.8988C98.6655 31.8188 100.884 29.7315 103.527 29.7315C105.611 29.7315 107.186 31.1116 107.861 32.7636L108.224 33.6073L101.235 36.486C101.653 37.2575 102.327 38.054 103.791 38.0542C105.096 38.0542 105.877 37.3501 106.345 36.6297L108.147 37.8199C107.339 38.893 105.986 40.0904 103.78 40.0904C101.138 40.0904 98.6655 38.1577 98.6655 34.8988ZM103.618 31.7216C104.57 31.7216 105.255 32.224 105.546 32.8267L100.879 34.7632C100.678 33.2639 102.109 31.7216 103.618 31.7216Z" fill="white"/>
<path d="M97.3995 39.7833H95.1041V24.5328H97.3995V39.7833Z" fill="white"/>
<path d="M125.88 39.7833H128.176V24.5328H125.88V39.7833Z" fill="white"/>
<path fill-rule="evenodd" clip-rule="evenodd" d="M116.003 39.7833H113.708V24.5328L119.26 24.5327C121.952 24.5327 124.154 26.7189 124.154 29.391C124.154 32.063 121.952 34.2492 119.26 34.2492H116.003V39.7833ZM116.003 31.9704V26.8115H119.26C120.685 26.8115 121.859 27.9767 121.859 29.391C121.859 30.8052 120.685 31.9704 119.26 31.9704H116.003Z" fill="white"/>
<path d="M145.123 44.7465L151.77 29.7318H149.263L146.255 36.5263L143.247 29.7318H140.74L145.001 39.3584L142.616 44.7465H145.123Z" fill="white"/>
<path fill-rule="evenodd" clip-rule="evenodd" d="M137.57 39.7833H139.866V34.2983C140.225 28.6413 133.001 27.3109 130.267 31.3889L132.114 32.6194C133.451 30.2996 137.265 30.8334 137.516 33.3195C136.369 33.0181 135.131 32.7996 134 32.9132C132.234 33.0906 130.722 34.204 130.481 36.0276C130.352 37.0131 130.573 38.2278 131.266 38.9681C132.346 40.1215 134.119 40.2769 135.576 39.8828C136.396 39.6609 137.041 39.1772 137.57 38.5523V39.7833ZM135.03 37.895C136.286 37.5553 137.277 36.643 137.57 35.3748C136.928 35.1683 136.337 35.0017 135.66 34.9206C131.715 34.3318 132.376 38.6133 135.03 37.895Z" fill="white"/>
<path d="M66.037 19.1028H64.9924V12.1625H66.037V19.1028Z" fill="white"/>
<path d="M59.1422 19.1028H60.1869V13.1995H61.9017V12.1625H57.4275V13.1995H59.1422V19.1028Z" fill="white"/>
<path d="M56.3261 19.1028H52.3199V12.1625H56.3261V13.1995H53.3646V15.1142H55.9696V16.1512H53.3646V18.0657H56.3261V19.1028Z" fill="white"/>
<path d="M69.6467 19.1028V13.1995H71.3614V12.1625H66.8874V13.1995H68.6021V19.1028H69.6467Z" fill="white"/>
<path fill-rule="evenodd" clip-rule="evenodd" d="M74.0493 15.5728C74.0493 13.6754 75.6711 11.9189 77.7676 11.9189C79.8641 11.9189 81.4859 13.6754 81.4859 15.5728C81.4859 17.4173 79.9845 19.2158 77.7676 19.2443C75.5508 19.2158 74.0493 17.4173 74.0493 15.5728ZM77.7676 18.2452C76.3662 18.2281 75.1503 17.1282 75.1503 15.5907C75.1503 14.0937 76.3085 12.9381 77.7676 12.9194C79.2268 12.9381 80.3849 14.0937 80.3849 15.5907C80.3849 17.1282 79.169 18.2281 77.7676 18.2452Z" fill="white"/>
<path d="M83.574 19.1028H82.5293V12.1625H83.574L86.9273 17.2153V12.1625H87.972V19.1028H86.9291L83.574 14.0474V19.1028Z" fill="white"/>
<path d="M15.5018 20.5757L27.3047 32.2757L15.5585 44.0783C15.2157 43.862 15.032 43.3938 15.0288 42.7889L14.9224 21.8412C14.9191 21.1788 15.1618 20.7747 15.5018 20.5757Z" fill="white"/>
<path d="M16.8444 20.5915L31.1968 28.3651L27.7929 31.785L16.3436 20.4353C16.5171 20.4579 16.6912 20.5084 16.8444 20.5915Z" fill="white"/>
<path d="M31.835 35.7919L28.2846 32.2723L31.8314 28.7088L36.7158 31.354C37.9191 32.0053 37.3036 32.8202 36.7158 33.1395L31.835 35.7919Z" fill="white"/>
<path d="M16.8444 43.9368C16.736 43.997 16.6315 44.0441 16.5315 44.0815L27.7964 32.763L31.1997 36.1367L16.8444 43.9368Z" fill="white"/>
</g>
</g>
</svg>
