<svg width="60" height="60" viewBox="0 0 60 60" fill="none" xmlns="http://www.w3.org/2000/svg">
<g id="Icon/control/search">
<path id="Vector" d="M39.3877 35.6375H37.4127L36.7127 34.9625C39.1627 32.1124 40.6377 28.4125 40.6377 24.3875C40.6377 15.4125 33.3627 8.13745 24.3877 8.13745C15.4127 8.13745 8.1377 15.4125 8.1377 24.3875C8.1377 33.3625 15.4127 40.6375 24.3877 40.6375C28.4127 40.6375 32.1127 39.1625 34.9627 36.7125L35.6377 37.4125V39.3875L48.1377 51.8624L51.8627 48.1375L39.3877 35.6375ZM24.3877 35.6375C18.1627 35.6375 13.1377 30.6125 13.1377 24.3875C13.1377 18.1625 18.1627 13.1375 24.3877 13.1375C30.6127 13.1375 35.6377 18.1625 35.6377 24.3875C35.6377 30.6125 30.6127 35.6375 24.3877 35.6375Z" fill="#B90404"/>
</g>
</svg>
