<svg width="38" height="38" viewBox="0 0 38 38" fill="none" xmlns="http://www.w3.org/2000/svg">
<g id="healthicons:market-stall-outline">
<g id="Group">
<path id="Vector" d="M17.8125 22.167C17.4976 22.167 17.1955 22.0419 16.9728 21.8192C16.7501 21.5965 16.625 21.2944 16.625 20.9795C16.625 20.6645 16.7501 20.3625 16.9728 20.1398C17.1955 19.9171 17.4976 19.792 17.8125 19.792C18.1274 19.792 18.4295 19.9171 18.6522 20.1398C18.8749 20.3625 19 20.6645 19 20.9795C19 21.2944 18.8749 21.5965 18.6522 21.8192C18.4295 22.0419 18.1274 22.167 17.8125 22.167Z" fill="white"/>
<path id="Vector_2" fill-rule="evenodd" clip-rule="evenodd" d="M7.46462 15.8333C7.61821 15.8333 7.76942 15.8207 7.91667 15.7953V22.1667H5.9375C5.83252 22.1667 5.73184 22.2084 5.6576 22.2826C5.58337 22.3568 5.54167 22.4575 5.54167 22.5625V23.3542C5.54167 23.4591 5.58337 23.5598 5.6576 23.6341C5.73184 23.7083 5.83252 23.75 5.9375 23.75H32.0625C32.1675 23.75 32.2682 23.7083 32.3424 23.6341C32.4166 23.5598 32.4583 23.4591 32.4583 23.3542V22.5625C32.4583 22.4575 32.4166 22.3568 32.3424 22.2826C32.2682 22.2084 32.1675 22.1667 32.0625 22.1667H30.0833V15.7953C30.2306 15.8207 30.3818 15.8333 30.5354 15.8333C32.0411 15.8333 33.25 14.6047 33.25 13.1029V11.2108C33.2501 10.9597 33.2064 10.7106 33.121 10.4745L31.3951 5.71663C31.2927 5.43344 31.1056 5.18869 30.8591 5.01572C30.6126 4.84275 30.3188 4.74997 30.0176 4.75H7.98158C7.68063 4.75035 7.38709 4.8434 7.1409 5.0165C6.89472 5.1896 6.70783 5.43434 6.60567 5.71742L4.87983 10.4745C4.79408 10.7105 4.75015 10.9597 4.75 11.2108V13.1029C4.75 14.6047 5.95887 15.8333 7.46462 15.8333ZM6.36817 11.0145L8.06629 6.33333H29.9329L31.631 11.0145C31.6548 11.0778 31.6659 11.1435 31.6659 11.2108V13.1029C31.6678 13.405 31.5497 13.6954 31.3376 13.9105C31.1255 14.1256 30.8367 14.2477 30.5346 14.25C29.9171 14.25 29.4041 13.7433 29.4041 13.1029C29.4041 12.8929 29.3207 12.6915 29.1722 12.5431C29.0237 12.3946 28.8224 12.3112 28.6124 12.3112C28.4025 12.3112 28.2011 12.3946 28.0526 12.5431C27.9042 12.6915 27.8207 12.8929 27.8207 13.1029C27.8226 13.405 27.7046 13.6954 27.4925 13.9105C27.2803 14.1256 26.9915 14.2477 26.6895 14.25C26.072 14.25 25.559 13.7433 25.559 13.1037C25.559 12.8937 25.4756 12.6923 25.3271 12.5439C25.1786 12.3954 24.9773 12.312 24.7673 12.312C24.5573 12.312 24.356 12.3954 24.2075 12.5439C24.059 12.6923 23.9756 12.8937 23.9756 13.1037C23.9756 13.7433 23.4626 14.25 22.8443 14.25C22.226 14.25 21.7138 13.7433 21.7138 13.1029C21.7138 12.8929 21.6304 12.6915 21.482 12.5431C21.3335 12.3946 21.1321 12.3112 20.9222 12.3112C20.7122 12.3112 20.5108 12.3946 20.3624 12.5431C20.2139 12.6915 20.1305 12.8929 20.1305 13.1029C20.1326 13.4049 20.0147 13.6954 19.8027 13.9105C19.5907 14.1256 19.302 14.2477 19 14.25C18.6981 14.2477 18.4094 14.1257 18.1973 13.9108C17.9852 13.6959 17.867 13.4056 17.8687 13.1037C17.8687 12.8937 17.7853 12.6923 17.6368 12.5439C17.4884 12.3954 17.287 12.312 17.077 12.312C16.8671 12.312 16.6657 12.3954 16.5172 12.5439C16.3688 12.6923 16.2854 12.8937 16.2854 13.1037C16.2854 13.7433 15.7732 14.25 15.1549 14.25C14.5366 14.25 14.0236 13.7433 14.0236 13.1029C14.0236 12.8929 13.9402 12.6915 13.7917 12.5431C13.6432 12.3946 13.4419 12.3112 13.2319 12.3112C13.022 12.3112 12.8206 12.3946 12.6721 12.5431C12.5237 12.6915 12.4402 12.8929 12.4402 13.1029C12.4402 13.7425 11.928 14.25 11.3098 14.25C10.6915 14.25 10.1785 13.7433 10.1785 13.1029C10.1785 12.8929 10.0951 12.6915 9.94658 12.5431C9.79812 12.3946 9.59676 12.3112 9.38679 12.3112C9.17683 12.3112 8.97546 12.3946 8.827 12.5431C8.67853 12.6915 8.59513 12.8929 8.59513 13.1029C8.59513 13.7425 8.08292 14.25 7.46462 14.25C6.84554 14.25 6.33333 13.7433 6.33333 13.1029V11.2108C6.33332 11.1438 6.34511 11.0773 6.36817 11.0145ZM28.5 15.1383C28.004 15.5866 27.3589 15.8344 26.6903 15.8333C26.3326 15.8338 25.9785 15.763 25.6485 15.6252C25.3185 15.4874 25.0192 15.2852 24.7681 15.0306C24.5169 15.2853 24.2175 15.4875 23.8873 15.6253C23.5572 15.7632 23.2029 15.8339 22.8451 15.8333C22.4875 15.8338 22.1334 15.763 21.8033 15.6252C21.4733 15.4874 21.1741 15.2852 20.923 15.0306C20.6718 15.2853 20.3724 15.4875 20.0422 15.6253C19.7121 15.7632 19.3578 15.8339 19 15.8333C18.6422 15.8339 18.2879 15.7632 17.9578 15.6253C17.6276 15.4875 17.3282 15.2853 17.077 15.0306C16.8259 15.2852 16.5267 15.4874 16.1967 15.6252C15.8666 15.763 15.5125 15.8338 15.1549 15.8333C14.402 15.8333 13.722 15.5254 13.2319 15.0306C12.9808 15.2852 12.6815 15.4874 12.3515 15.6252C12.0215 15.763 11.6674 15.8338 11.3098 15.8333C10.6131 15.8333 9.97975 15.5697 9.5 15.1383V22.1667H11.4792C11.3742 22.1667 11.2735 22.125 11.1993 22.0507C11.125 21.9765 11.0833 21.8758 11.0833 21.7708V20.1875C11.0833 20.0825 11.125 19.9818 11.1993 19.9076C11.2735 19.8334 11.3742 19.7917 11.4792 19.7917H13.8542C13.9591 19.7917 14.0598 19.8334 14.1341 19.9076C14.2083 19.9818 14.25 20.0825 14.25 20.1875V20.5833H15.4375C15.5425 20.5833 15.6432 20.625 15.7174 20.6993C15.7916 20.7735 15.8333 20.8742 15.8333 20.9792V21.7708C15.8333 21.8758 15.7916 21.9765 15.7174 22.0507C15.6432 22.125 15.5425 22.1667 15.4375 22.1667H28.5V15.1383ZM6.33333 26.125C6.33333 25.915 6.41674 25.7137 6.56521 25.5652C6.71367 25.4167 6.91504 25.3333 7.125 25.3333H30.875C31.085 25.3333 31.2863 25.4167 31.4348 25.5652C31.5833 25.7137 31.6667 25.915 31.6667 26.125V32.4583C31.6667 32.6683 31.5833 32.8697 31.4348 33.0181C31.2863 33.1666 31.085 33.25 30.875 33.25H7.125C6.91504 33.25 6.71367 33.1666 6.56521 33.0181C6.41674 32.8697 6.33333 32.6683 6.33333 32.4583V26.125ZM7.91667 31.6667V26.9167H30.0833V31.6667H7.91667Z" fill="white"/>
</g>
</g>
</svg>
