<svg width="43" height="43" viewBox="0 0 43 43" fill="none" xmlns="http://www.w3.org/2000/svg">
<g id="Icon-contact/social/twitter3">
<path id="Fill 184" fill-rule="evenodd" clip-rule="evenodd" d="M29.286 17.2543C29.2935 17.4305 29.2985 17.6068 29.2985 17.7855C29.2985 23.2068 25.171 29.4593 17.6235 29.4593C15.306 29.4593 13.1497 28.7805 11.3335 27.6168C11.6547 27.6543 11.981 27.673 12.3122 27.673C14.2347 27.673 16.0035 27.018 17.4085 25.9168C15.6122 25.8843 14.0972 24.698 13.5747 23.068C13.826 23.1155 14.0822 23.1405 14.3472 23.1405C14.721 23.1405 15.0835 23.0905 15.4285 22.9968C13.551 22.6205 12.1372 20.9618 12.1372 18.9743C12.1372 18.9568 12.1372 18.9393 12.1372 18.9218C12.6897 19.2293 13.3235 19.4143 13.996 19.4355C12.8947 18.6993 12.1697 17.443 12.1697 16.0205C12.1697 15.268 12.3722 14.563 12.726 13.9568C14.7497 16.4393 17.7735 18.073 21.1835 18.2443C21.1135 17.9443 21.0772 17.6305 21.0772 17.3093C21.0772 15.043 22.9147 13.2055 25.1797 13.2055C26.361 13.2055 27.4272 13.7043 28.1747 14.5018C29.1097 14.318 29.9885 13.9768 30.781 13.5068C30.4747 14.4643 29.8235 15.268 28.9772 15.7768C29.8072 15.6768 30.5972 15.4568 31.3335 15.1305C30.7835 15.953 30.0872 16.6755 29.286 17.2543ZM21.3335 1.33301C10.2872 1.33301 1.3335 10.2868 1.3335 21.333C1.3335 32.378 10.2872 41.333 21.3335 41.333C32.3797 41.333 41.3335 32.378 41.3335 21.333C41.3335 10.2868 32.3797 1.33301 21.3335 1.33301Z" fill="#BDC4CD"/>
</g>
</svg>
