<svg width="36" height="36" viewBox="0 0 36 36" fill="none" xmlns="http://www.w3.org/2000/svg">
<g id="solar:user-outline">
<path id="Vector" fill-rule="evenodd" clip-rule="evenodd" d="M18.0001 1.875C16.1104 1.875 14.2981 2.62567 12.9619 3.96186C11.6258 5.29806 10.8751 7.11033 10.8751 9C10.8751 10.8897 11.6258 12.7019 12.9619 14.0381C14.2981 15.3743 16.1104 16.125 18.0001 16.125C19.8898 16.125 21.702 15.3743 23.0382 14.0381C24.3744 12.7019 25.1251 10.8897 25.1251 9C25.1251 7.11033 24.3744 5.29806 23.0382 3.96186C21.702 2.62567 19.8898 1.875 18.0001 1.875ZM13.1251 9C13.1251 7.70707 13.6387 6.46709 14.5529 5.55285C15.4672 4.63861 16.7072 4.125 18.0001 4.125C19.293 4.125 20.533 4.63861 21.4472 5.55285C22.3615 6.46709 22.8751 7.70707 22.8751 9C22.8751 10.2929 22.3615 11.5329 21.4472 12.4471C20.533 13.3614 19.293 13.875 18.0001 13.875C16.7072 13.875 15.4672 13.3614 14.5529 12.4471C13.6387 11.5329 13.1251 10.2929 13.1251 9ZM18.0001 18.375C14.5306 18.375 11.3326 19.164 8.96408 20.496C6.63008 21.81 4.87508 23.799 4.87508 26.25V26.403C4.87358 28.146 4.87208 30.333 6.79058 31.896C7.73408 32.664 9.05558 33.2115 10.8406 33.5715C12.6286 33.9345 14.9611 34.125 18.0001 34.125C21.0391 34.125 23.3701 33.9345 25.1611 33.5715C26.9461 33.2115 28.2661 32.664 29.2111 31.896C31.1296 30.333 31.1266 28.146 31.1251 26.403V26.25C31.1251 23.799 29.3701 21.81 27.0376 20.496C24.6676 19.164 21.4711 18.375 18.0001 18.375ZM7.12508 26.25C7.12508 24.9735 8.05808 23.5875 10.0666 22.458C12.0406 21.348 14.8426 20.625 18.0016 20.625C21.1576 20.625 23.9596 21.348 25.9336 22.458C27.9436 23.5875 28.8751 24.9735 28.8751 26.25C28.8751 28.212 28.8151 29.316 27.7891 30.15C27.2341 30.603 26.3041 31.0455 24.7141 31.3665C23.1286 31.6875 20.9611 31.875 18.0001 31.875C15.0391 31.875 12.8701 31.6875 11.2861 31.3665C9.69608 31.0455 8.76608 30.603 8.21108 30.1515C7.18508 29.316 7.12508 28.212 7.12508 26.25Z" fill="white"/>
</g>
</svg>
