<svg width="21" height="21" viewBox="0 0 21 21" fill="none" xmlns="http://www.w3.org/2000/svg">
<path id="Vector" fill-rule="evenodd" clip-rule="evenodd" d="M6.29942 16.7997C5.14444 16.7997 4.20996 17.7447 4.20996 18.8996C4.20996 20.0546 5.14444 20.9996 6.29942 20.9996C7.4544 20.9996 8.39939 20.0546 8.39939 18.8996C8.39939 17.7447 7.4544 16.7997 6.29942 16.7997ZM0 1.04998C0 1.62747 0.472492 2.09996 1.04998 2.09996H2.09996L5.8799 10.0693L4.46242 12.6313C3.69593 14.0383 4.70392 15.7497 6.29989 15.7497H17.8497C18.4272 15.7497 18.8997 15.2772 18.8997 14.6997C18.8997 14.1223 18.4272 13.6498 17.8497 13.6498H6.29989L7.45487 11.5498H15.2772C16.0647 11.5498 16.7577 11.1193 17.1147 10.4683L20.8736 3.65394C21.2621 2.96095 20.7581 2.09996 19.9601 2.09996H4.42042L3.71693 0.598489C3.54894 0.230996 3.17094 0 2.77195 0H1.04998C0.472492 0 0 0.472492 0 1.04998ZM16.7994 16.7997C15.6444 16.7997 14.71 17.7447 14.71 18.8996C14.71 20.0546 15.6444 20.9996 16.7994 20.9996C17.9544 20.9996 18.8994 20.0546 18.8994 18.8996C18.8994 17.7447 17.9544 16.7997 16.7994 16.7997Z" fill="#8B96A5"/>
</svg>
