<svg width="43" height="43" viewBox="0 0 43 43" fill="none" xmlns="http://www.w3.org/2000/svg">
<g id="Icon-contact/social/youtube3">
<path id="Combined Shape" fill-rule="evenodd" clip-rule="evenodd" d="M31.3335 22.088C31.3335 23.7068 31.1335 25.3255 31.1335 25.3255C31.1335 25.3255 30.9385 26.703 30.3385 27.3105C29.5785 28.1068 28.726 28.1105 28.3347 28.1568C25.536 28.3593 21.3335 28.3655 21.3335 28.3655C21.3335 28.3655 16.1335 28.318 14.5335 28.1655C14.0885 28.0818 13.0885 28.1068 12.3285 27.3105C11.7285 26.703 11.5335 25.3255 11.5335 25.3255C11.5335 25.3255 11.3335 23.7068 11.3335 22.088V20.5705C11.3335 18.9518 11.5335 17.3343 11.5335 17.3343C11.5335 17.3343 11.7285 15.9555 12.3285 15.348C13.0885 14.5518 13.941 14.548 14.3322 14.5018C17.131 14.2993 21.3297 14.2993 21.3297 14.2993H21.3372C21.3372 14.2993 25.536 14.2993 28.3347 14.5018C28.726 14.548 29.5785 14.5518 30.3385 15.348C30.9385 15.9555 31.1335 17.3343 31.1335 17.3343C31.1335 17.3343 31.3335 18.9518 31.3335 20.5705V22.088ZM21.3335 1.33301C10.2872 1.33301 1.3335 10.2868 1.3335 21.333C1.3335 32.378 10.2872 41.333 21.3335 41.333C32.3797 41.333 41.3335 32.378 41.3335 21.333C41.3335 10.2868 32.3797 1.33301 21.3335 1.33301ZM19.2687 23.9268L24.6725 21.1268L19.2675 18.3068L19.2687 23.9268Z" fill="#BDC4CD"/>
</g>
</svg>
